<?xml version="1.0" encoding="UTF-8"?>
<svg id="Warstwa_1" xmlns="http://www.w3.org/2000/svg" version="1.1" viewBox="0 0 1920 513.1">
  <!-- Generator: Adobe Illustrator 29.1.0, SVG Export Plug-In . SVG Version: 2.1.0 Build 142)  -->
  <defs>
    <style>
      .st0 {
        fill: #f0a3b7;
      }
    </style>
  </defs>
  <path class="st0" d="M132.4,343.1h27.1c8,0,11.9-3.9,11.9-11.9v-36.2c0-8-3.9-11.9-11.9-11.9h-27.1v60.1ZM132.4,244h27.1c3.9,0,6.9-1,8.8-3.1,2-2,3.1-4.9,3.1-8.5v-36.6c0-8-3.9-11.9-11.9-11.9h-27.1v60.1ZM91.9,377.6v-227.9c0-3.1,1.6-4.6,4.7-4.6h71c13.9,0,24.6,3.6,31.8,10.9,7.3,7.2,10.9,17.8,10.9,31.8v54.5c0,5.4-1.8,10.1-5.2,14s-8,6.4-13.2,7.2v.7c5.4.8,9.8,3.3,13.2,7,3.4,3.9,5.2,8.5,5.2,13.9v54.7c0,14-3.6,24.6-10.9,31.8-7.3,7.2-18,10.9-31.8,10.9h-71c-1.5,0-2.6-.5-3.4-1.3-.8-1.1-1.3-2.3-1.3-3.8"/>
  <path class="st0" d="M280.9,263.6h29.4c8,0,11.9-3.9,11.9-11.9v-55.8c0-8-3.9-11.9-11.9-11.9h-29.4v79.7ZM240.6,377.6v-227.9c0-3.1,1.6-4.6,4.7-4.6h74.6c14,0,24.6,3.6,31.8,10.9,7.2,7.2,10.9,17.8,10.9,31.8v72.3c0,19.9-7.2,33-21.7,39.3l20.6,77.7c.8,3.6-.5,5.4-4.2,5.4h-31c-2.8,0-4.6-1.5-5.1-4.2l-19.9-75.3h-20.4v74.8c0,1.5-.5,2.6-1.3,3.4s-2,1.3-3.4,1.3h-30.9c-1.5,0-2.6-.5-3.4-1.3-1-1.1-1.3-2.3-1.3-3.8"/>
  <path class="st0" d="M436.5,300.4h38l-19.1-103.5-18.9,103.5ZM380.7,377.2l49.3-228.2c.7-2.8,2.3-4.1,5.1-4.1h41.1c2.8,0,4.6,1.3,5.1,4.1l49.3,228.2c.2.5.2,1,.2,1.5,0,2.4-1.5,3.6-4.2,3.6h-31.7c-2.4,0-4.1-1.5-4.6-4.2l-8.3-43.3h-52.7l-8.2,43.3c-.7,2.8-2.1,4.2-4.6,4.2h-31.7c-2.8,0-4.2-1.1-4.2-3.3-.2-.5,0-1.1.2-1.8"/>
  <path class="st0" d="M554.2,377.6v-227.9c0-3.1,1.6-4.6,4.7-4.6h29.4c2.8,0,4.6,1.3,5.4,3.8l45.1,126.2h1.8v-125.4c0-3.1,1.6-4.6,4.7-4.6h30.9c3.3,0,4.7,1.5,4.7,4.6v227.9c0,1.5-.5,2.6-1.3,3.4s-2,1.3-3.4,1.3h-29.4c-2.6,0-4.4-1.3-5.2-3.9l-45.5-126.7h-1.5v125.7c0,3.3-1.6,4.7-4.7,4.7h-30.9c-1.5,0-2.6-.5-3.4-1.3-.8-.7-1.3-1.8-1.3-3.3"/>
  <path class="st0" d="M750.9,343.1h27.3c8,0,11.9-3.9,11.9-11.9v-135c0-8.2-3.9-12.2-11.9-12.2h-27.3v159.2ZM710.6,377.6v-227.9c0-3.1,1.6-4.6,4.7-4.6h71.3c14,0,24.6,3.6,31.8,10.9,7.2,7.3,10.9,18,10.9,32v151.5c0,14-3.6,24.6-10.9,31.8-7.2,7.2-17.8,10.9-31.8,10.9h-71.3c-3.1,0-4.7-1.6-4.7-4.7"/>
  <path class="st0" d="M1106.9,339.5v-188.5c0-1.6.7-3.1,1.8-4.2s2.6-1.8,4.2-1.8h28.6c1.6,0,3.1.7,4.2,1.8s1.8,2.6,1.8,4.2v180.4c0,8,3.9,11.9,11.9,11.9h15.3c8,0,11.9-3.9,11.9-11.9v-180.4c0-1.6.7-3.1,1.8-4.2s2.6-1.8,4.2-1.8h27.4c1.6,0,3.1.7,4.2,1.8s1.8,2.6,1.8,4.2v188.7c0,14-3.6,24.6-10.9,31.8-7.2,7.2-17.8,10.9-31.8,10.9h-33.3c-14,0-24.6-3.6-31.8-10.9-7.8-7.3-11.4-18-11.4-32"/>
  <path class="st0" d="M1295.6,263.6h29.4c8,0,11.9-3.9,11.9-11.9v-55.8c0-8-3.9-11.9-11.9-11.9h-29.4v79.7ZM1255.3,377.6v-227.9c0-3.1,1.6-4.6,4.7-4.6h74.6c14,0,24.6,3.6,31.8,10.9,7.2,7.2,10.9,17.8,10.9,31.8v72.3c0,19.9-7.2,33-21.7,39.3l20.6,77.7c.8,3.6-.5,5.4-4.2,5.4h-31c-2.8,0-4.6-1.5-5.1-4.2l-19.9-75.3h-20.4v74.8c0,1.5-.5,2.6-1.3,3.4s-2,1.3-3.4,1.3h-30.9c-1.5,0-2.6-.5-3.4-1.3-1-1.1-1.3-2.3-1.3-3.8"/>
  <path class="st0" d="M1406.8,339.5v-151.8c0-14,3.6-24.6,10.9-31.8,7.2-7.2,17.8-10.9,31.8-10.9h39.3c13.9,0,24.3,3.6,31.7,10.9s10.9,18,10.9,31.8v30.9c0,3.1-1.6,4.6-4.7,4.6h-29.7c-3.3,0-4.7-1.5-4.7-4.6v-22.5c0-8-3.9-11.9-11.9-11.9h-21.2c-8,0-11.9,3.9-11.9,11.9v135.3c0,8,3.9,11.9,11.9,11.9h21.2c8,0,11.9-3.9,11.9-11.9v-39.8h-15.3c-3.3,0-4.7-1.5-4.7-4.6v-29.7c0-3.3,1.6-4.7,4.7-4.7h49.8c3.3,0,4.7,1.6,4.7,4.7v82.4c0,13.9-3.6,24.5-10.9,31.8-7.3,7.3-18,10.9-31.7,10.9h-39.3c-14,0-24.6-3.6-31.8-10.9-7.3-7.3-10.9-18-10.9-32"/>
  <path class="st0" d="M1560.9,377.6v-227.9c0-1.5.5-2.6,1.3-3.4s2-1.3,3.3-1.3h109.2c3.3,0,4.7,1.5,4.7,4.6v29.7c0,3.4-1.6,5.1-4.7,5.1h-74.4v59.4h57c3.3,0,4.7,1.6,4.7,4.9v29.4c0,3.4-1.6,5.1-4.7,5.1h-57v59.9h74.4c1.8,0,3.1.3,3.8,1s1,2,1,3.6v29.7c0,3.3-1.6,4.7-4.7,4.7h-109.2c-1.3,0-2.4-.5-3.3-1.3-.8-.5-1.3-1.6-1.3-3.1"/>
  <path class="st0" d="M1746.3,263.6h29.4c8,0,11.9-3.9,11.9-11.9v-55.8c0-8-3.9-11.9-11.9-11.9h-29.4v79.7ZM1706,377.6v-227.9c0-3.1,1.6-4.6,4.7-4.6h74.6c14,0,24.6,3.6,31.8,10.9,7.2,7.2,10.9,17.8,10.9,31.8v72.3c0,19.9-7.2,33-21.7,39.3l20.6,77.7c.8,3.6-.5,5.4-4.2,5.4h-31c-2.8,0-4.6-1.5-5.1-4.2l-19.9-75.3h-20.4v74.8c0,1.5-.5,2.6-1.3,3.4s-2,1.3-3.4,1.3h-30.9c-1.5,0-2.6-.5-3.4-1.3-1-1.1-1.3-2.3-1.3-3.8"/>
  <path class="st0" d="M1075.4,189.8h-210.7c-3.1,0-4.6-1.6-4.6-4.7v-30.9c0-3.3,1.5-4.7,4.6-4.7h210.7c1.5,0,2.6.5,3.4,1.3s1.3,2,1.3,3.4v30.9c0,3.1-1.6,4.7-4.7,4.7"/>
  <path class="st0" d="M1075.4,284h-210.7c-3.1,0-4.6-1.6-4.6-4.7v-30.9c0-3.3,1.5-4.7,4.6-4.7h210.7c1.5,0,2.6.5,3.4,1.3s1.3,2,1.3,3.4v30.9c0,3.1-1.6,4.7-4.7,4.7"/>
  <path class="st0" d="M1075.4,379.7h-210.7c-3.1,0-4.6-1.6-4.6-4.7v-30.9c0-3.3,1.5-4.7,4.6-4.7h210.7c1.5,0,2.6.5,3.4,1.3s1.3,2,1.3,3.4v30.9c0,3.3-1.6,4.7-4.7,4.7"/>
</svg>