<?xml version="1.0" encoding="UTF-8"?>
<svg id="Warstwa_1" xmlns="http://www.w3.org/2000/svg" version="1.1" viewBox="0 0 1920 1080">
  <!-- Generator: Adobe Illustrator 29.1.0, SVG Export Plug-In . SVG Version: 2.1.0 Build 142)  -->
  <defs>
    <style>
      .st0 {
        fill: #e7383f;
      }

      .st1 {
        fill: #e7383f;
      }

      .st2 {
        fill: #f3efe7;
      }
    </style>
  </defs>
  <polygon class="st1" points="485.1 335.5 347.6 335.5 252.9 430.2 252.9 567.7 347.6 662.4 485.1 662.4 579.8 567.7 579.8 430.2 485.1 335.5"/>
  <g>
    <path class="st2" d="M339.4,504.1c-3.2-2.7-7-4.5-11.4-5.5-4.4-1-10-1.9-16.9-2.6-4.3-.5-7.7-1-10-1.4-2.3-.4-4.3-1-5.8-1.9-1.5-.8-2.3-2-2.3-3.5s.5-2.2,1.4-3c.9-.8,2.5-1.5,4.7-2,2.2-.5,5.2-.7,8.9-.7s7.4.3,9.7.9c2.3.6,4,1.6,5.2,3,1.1,1.4,1.9,3.2,2.4,5.6h18c-.6-5-2.2-8.9-4.9-12-2.7-3-6.5-5.2-11.4-6.5-4.9-1.4-11-2-18.4-2s-14.9.8-19.9,2.3-8.5,3.6-10.6,6.3c-2.1,2.6-3.2,5.8-3.2,9.4s1.6,8.4,4.8,11c3.2,2.6,7,4.4,11.4,5.4,4.4,1,10,1.9,16.7,2.6,4.3.5,7.7.9,10.1,1.4,2.4.5,4.4,1.1,6,2,1.6.9,2.4,2.1,2.4,3.6,0,2.2-1.3,3.9-4,5-2.7,1.1-6.6,1.7-11.9,1.7s-7.1-.3-9.6-1c-2.5-.7-4.5-1.7-5.9-3.2-1.4-1.5-2.4-3.4-2.8-5.9h-18.7c.9,5.2,2.8,9.3,5.7,12.3,2.9,3,6.8,5.2,11.8,6.5,5,1.3,11.2,2,18.8,2s15.7-.8,20.8-2.3c5.2-1.5,8.8-3.7,10.9-6.3,2.1-2.7,3.2-5.8,3.2-9.5s-1.6-8.7-4.8-11.4Z"/>
    <polygon class="st2" points="345.3 485.9 368.9 485.9 368.9 532.6 386.6 532.6 386.6 485.9 410.2 485.9 410.2 473.4 345.3 473.4 345.3 485.9"/>
    <path class="st2" d="M475.1,475.7c-6-2.2-13.5-3.3-22.6-3.3s-16.8,1.1-22.7,3.3c-6,2.2-10.4,5.5-13.3,10-2.9,4.5-4.4,10.3-4.4,17.3s1.5,12.9,4.4,17.4c2.9,4.5,7.4,7.8,13.3,10,6,2.2,13.5,3.3,22.7,3.3s16.6-1.1,22.6-3.3c6-2.2,10.5-5.5,13.4-10s4.4-10.3,4.4-17.4-1.5-12.8-4.4-17.3c-3-4.5-7.4-7.8-13.4-10ZM472.5,514c-1.5,2.8-3.9,4.8-7.1,6-3.2,1.3-7.5,1.9-12.9,1.9s-9.8-.6-13-1.9c-3.2-1.3-5.6-3.3-7.1-6-1.5-2.7-2.3-6.4-2.3-11s.8-8.3,2.3-11c1.5-2.7,3.9-4.7,7.1-6s7.5-1.9,13-1.9,9.7.6,12.9,1.9c3.2,1.3,5.6,3.3,7.1,6,1.5,2.7,2.3,6.4,2.3,11s-.8,8.2-2.3,11Z"/>
    <path class="st2" d="M560.1,478.4c-4.6-3.3-11.1-5-19.4-5h-40.5v59.1h17.8v-17h22.9c6.4,0,11.5-.8,15.4-2.5,3.8-1.7,6.6-4,8.2-7.1,1.7-3.1,2.5-7,2.5-11.7,0-7.3-2.3-12.6-6.9-15.9ZM548.7,500.3c-.7,1.4-1.8,2.4-3.3,3-1.5.6-3.4.9-5.8,1h-21.5v-18.8h21.9c3.4,0,5.9.7,7.5,2.2,1.5,1.4,2.3,3.8,2.3,7.1s-.4,4.3-1.1,5.7Z"/>
  </g>
  <g>
    <polygon class="st0" points="762.8 481.9 762.8 464.6 666.9 464.6 666.9 482.7 731.3 482.8 664.4 542.5 664.4 557 763.6 557 763.6 539.8 699.2 539.8 762.8 481.9"/>
    <polygon class="st0" points="860.8 523.4 801.8 464.6 774.4 464.6 774.4 557 799.6 557 799.6 496.5 858.7 557 886 557 886 464.6 860.8 464.6 860.8 523.4"/>
    <rect class="st0" x="899.3" y="464.6" width="27.8" height="92.4"/>
    <polygon class="st0" points="940.5 557 1031.5 557 1031.5 536 968.3 536 968.3 520.8 1028.5 520.8 1028.5 500.6 968.3 500.6 968.3 485.6 1031.5 485.6 1031.5 464.6 940.5 464.6 940.5 557"/>
    <path class="st0" d="M1128.3,532.3c-2.3,2.8-5.7,4.9-10.2,6.1-4.5,1.3-10.4,1.9-17.7,1.9s-14.9-.9-19.8-2.6c-4.9-1.8-8.6-4.7-11-9s-3.6-10.1-3.6-17.5,1.2-13.9,3.6-18.1c2.4-4.3,6.1-7.3,11-9.2,4.9-1.8,11.3-2.8,19.2-2.8s17.9,1.5,23,4.4c5.1,2.9,8,7.7,8.8,14.2h28.6c-.8-7.9-3.3-14.6-7.4-19.9-4.1-5.4-10.6-9.5-19.3-12.4-8.7-2.9-20.2-4.4-34.4-4.4s-25.5,1.7-34.6,5.1c-9.1,3.4-15.9,8.7-20.3,15.8-4.4,7.2-6.6,16.5-6.6,28s2.3,20.2,6.8,27c4.5,6.8,11.4,11.7,20.6,14.8,9.2,3,21.3,4.6,36.2,4.6s23.1-1.2,31.3-3.5,14.6-6.2,19.3-11.6c4.7-5.4,7.7-12.7,9-21.8h-28.8c-.4,4.5-1.7,8.1-4,11Z"/>
    <polygon class="st0" points="1263.7 481.9 1263.7 464.6 1167.8 464.6 1167.8 482.7 1232.3 482.8 1165.3 542.5 1165.3 557 1264.5 557 1264.5 539.8 1200.2 539.8 1263.7 481.9"/>
    <path class="st0" d="M1358.2,520.8c0,6.8-2.3,11.7-6.8,14.8-4.5,3.1-11.7,4.6-21.4,4.6s-16.9-1.5-21.4-4.6c-4.5-3.1-6.7-8-6.7-14.8v-56.2h-27.7v56.9c0,9.5,2.4,17,7.1,22.4,4.7,5.5,11.2,9.3,19.3,11.5,8.1,2.2,17.9,3.3,29.3,3.3s21.2-1.1,29.4-3.3c8.1-2.2,14.6-6,19.5-11.5,4.8-5.5,7.3-12.9,7.3-22.4v-56.9h-27.7v56.2Z"/>
    <polygon class="st0" points="1426.4 464.6 1398.6 464.6 1398.6 557 1482.1 557 1482.1 538.3 1426.4 538.3 1426.4 464.6"/>
    <rect class="st0" x="1490.5" y="464.6" width="27.8" height="92.4"/>
    <path class="st0" d="M1620.4,532.3c-2.3,2.8-5.7,4.9-10.2,6.1-4.5,1.3-10.4,1.9-17.7,1.9s-14.9-.9-19.8-2.6c-4.9-1.8-8.6-4.7-11-9-2.4-4.2-3.6-10.1-3.6-17.5s1.2-13.9,3.6-18.1c2.4-4.3,6.1-7.3,11-9.2,4.9-1.8,11.3-2.8,19.2-2.8s17.9,1.5,23,4.4c5.1,2.9,8,7.7,8.8,14.2h28.6c-.8-7.9-3.3-14.6-7.4-19.9-4.1-5.4-10.6-9.5-19.3-12.4-8.7-2.9-20.2-4.4-34.4-4.4s-25.5,1.7-34.6,5.1c-9.1,3.4-15.9,8.7-20.3,15.8-4.4,7.2-6.6,16.5-6.6,28s2.3,20.2,6.8,27c4.5,6.8,11.4,11.7,20.6,14.8,9.2,3,21.3,4.6,36.2,4.6s23.1-1.2,31.3-3.5,14.6-6.2,19.3-11.6c4.7-5.4,7.7-12.7,9-21.8h-28.8c-.4,4.5-1.7,8.1-4,11Z"/>
    <polygon class="st0" points="1731.1 464.6 1705.7 505.8 1680 464.6 1648.5 464.6 1691.7 524.9 1691.7 557 1719.5 557 1719.5 525.1 1761.8 464.6 1731.1 464.6"/>
  </g>
  <g>
    <polygon class="st0" points="753.3 628.4 694.3 569.6 666.9 569.6 666.9 662 692.1 662 692.1 601.5 751.2 662 778.5 662 778.5 569.6 753.3 569.6 753.3 628.4"/>
    <path class="st0" d="M827,569.6l-41.4,92.4h29.7l7.7-20.1h43.6l7.6,20.1h29.7l-41.2-92.4h-35.8ZM830.1,623.6l14-36.3h1.8l13.8,36.3h-29.6Z"/>
    <path class="st0" d="M1026.9,625.8c0,6.8-2.3,11.7-6.8,14.8-4.5,3.1-11.7,4.6-21.4,4.6s-16.9-1.5-21.4-4.6c-4.5-3.1-6.7-8-6.7-14.8v-56.2h-27.7v56.9c0,9.5,2.4,17,7.1,22.4,4.7,5.5,11.2,9.3,19.3,11.5,8.1,2.2,17.9,3.3,29.3,3.3s21.2-1.1,29.4-3.3c8.1-2.2,14.6-6,19.5-11.5,4.8-5.5,7.3-12.9,7.3-22.4v-56.9h-27.7v56.2Z"/>
    <polygon class="st0" points="1095.1 569.6 1067.3 569.6 1067.3 662 1150.8 662 1150.8 643.3 1095.1 643.3 1095.1 569.6"/>
    <rect class="st0" x="1159.3" y="569.6" width="27.8" height="92.4"/>
    <path class="st0" d="M1289.1,637.3c-2.3,2.8-5.7,4.9-10.2,6.1-4.5,1.3-10.4,1.9-17.7,1.9s-14.9-.9-19.8-2.6c-4.9-1.8-8.6-4.7-11-9s-3.6-10.1-3.6-17.5,1.2-13.9,3.6-18.1c2.4-4.3,6.1-7.3,11-9.2,4.9-1.8,11.3-2.8,19.2-2.8s17.9,1.5,23,4.4c5.1,2.9,8,7.7,8.8,14.2h28.6c-.8-7.9-3.3-14.6-7.4-19.9-4.1-5.4-10.6-9.5-19.3-12.4-8.7-2.9-20.2-4.4-34.4-4.4s-25.5,1.7-34.6,5.1c-9.1,3.4-15.9,8.7-20.3,15.8-4.4,7.2-6.6,16.5-6.6,28s2.3,20.2,6.8,27c4.5,6.8,11.4,11.7,20.6,14.8,9.2,3,21.3,4.6,36.2,4.6s23.1-1.2,31.3-3.5c8.2-2.3,14.6-6.2,19.3-11.6,4.7-5.4,7.7-12.7,9-21.8h-28.8c-.4,4.5-1.7,8.1-4,11Z"/>
    <polygon class="st0" points="1399.8 569.6 1374.4 610.8 1348.7 569.6 1317.2 569.6 1360.5 629.9 1360.5 662 1388.2 662 1388.2 630.1 1430.5 569.6 1399.8 569.6"/>
  </g>
  <g>
    <path class="st1" d="M1117.1,347.2c-9.1-6.5-21.4-9.8-36.6-9.8h-63.2c-6,0-10.8,4.8-10.8,10.8,0,0-1,7.4-8.2,2.5,0,0,0,0,0,0-4.7-3.8-10.2-6.8-16.5-9.1-10.5-3.8-23.6-5.7-39-5.7s-28.7,1.9-39.2,5.7c-2.9,1-5.6,2.3-8.1,3.6h0c-5.2,2.4-8.5-1-9.6-2.6-.1-.2-.3-.4-.4-.6,0,0,0,0,0,0h0c-2-2.7-5.1-4.5-8.7-4.5h-101.5c-3,0-5.7,1.2-7.7,3.2h0c-4,4.3-9,2.1-9,2.1h0c-2.9-1.3-5.9-2.5-9.3-3.4-8.6-2.4-19-3.6-31.6-3.6s-25.3,1.3-34.2,4c-10,3.1-17.2,7.4-21.9,13.4-4.8,6.1-7.3,13.3-7.3,21.4s1.3,11.6,3.9,16.4h0s0,0,0,0c.2.4.5.9.7,1.3,1.1,2.1,2.6,6.1-.8,7.6h0c-.7.3-1.4.7-2,1.1-3.4,2.5-4.9,6.6-4.2,10.5,1.8,10.2,5.7,18.6,11.7,24.9,5.9,6.2,13.8,10.6,23.4,13.2,8.7,2.3,19.2,3.5,32.1,3.5s26.5-1.3,35.6-4.1c10.3-3.1,17.6-7.5,22.4-13.5,4.8-6.1,7.3-13.4,7.3-21.5s-1.9-13.4-4.5-17.8h0s0,0,0,0c-.4-.8-.9-1.5-1.4-2.2-1.7-3.3-.9-5.5,0-6.7.5-.4,1-.8,1.4-1.3.9-1,1.6-2.2,2.1-3.4h0s0,0,0,0c.1-.4.2-.7.3-1.1.5-1.2,1.8-2.9,4.7-2.9h10.1c2.3,0,4.2,1.9,4.2,4.2v58c0,6,4.8,10.8,10.8,10.8h27.6c6,0,10.8-4.8,10.8-10.8v-58c0-2.3,1.9-4.2,4.2-4.2h5.5s8.6.9,8.7,11.6c0,0,0,0,0,0,0,1.4-.1,2.9-.1,4.4,0,13.2,2.9,24.3,8.6,33,5.8,8.9,14.6,15.6,26.2,19.9,10.5,3.9,23.7,5.8,39.2,5.8s28.5-2,39-5.8c7.2-2.6,13.3-6.2,18.3-10.7h0s0,0,0,0c.2-.2.4-.3.5-.5,1.5-1.3,5.4-4,5.9,1.4v3.1c0,6,4.8,10.8,10.8,10.8h27.8c6,0,10.8-4.8,10.8-10.8v-11.6c0-2.3,1.9-4.2,4.2-4.2h20.8c11.6,0,20.9-1.6,28.3-4.8,8.2-3.6,14.3-8.9,18.1-15.9,3.4-6.4,5.2-14.2,5.2-23.3,0-18.6-8.3-28.5-15.3-33.6ZM768.7,428.6c-3.3,4.2-9,7.5-17,9.9-8,2.4-18.9,3.6-32.5,3.6s-21.6-1-29.3-3.1c-7.7-2.1-13.9-5.5-18.4-10.2-3.5-3.7-6.1-8.3-7.7-13.9-.8-2.7,1.3-5.3,4-5.3h20.7c1.8,0,3.4,1.1,4,2.8.8,2.6,2.1,4.7,3.7,6.4,2.2,2.3,5.3,4,9.2,5,3.9,1.1,8.9,1.6,15,1.6s14.4-.9,18.5-2.6c4.2-1.8,6.3-4.4,6.3-7.8s-1.2-4.2-3.7-5.6c-2.5-1.4-5.6-2.4-9.3-3.1-3.7-.7-9-1.4-15.8-2.1-10.6-1.1-19.3-2.5-26.1-4.1-6.9-1.6-12.8-4.4-17.7-8.4-5-4-7.5-9.8-7.5-17.2s1.6-10.5,4.9-14.6c3.3-4.1,8.8-7.4,16.6-9.8,7.8-2.4,18.1-3.6,31.1-3.6s21.1,1.1,28.7,3.2c7.6,2.1,13.5,5.5,17.8,10.2,0,0,.1.2.2.3,3,3.4,5.2,8.1,6.5,13.3.6,2.6-1.4,5.1-4.1,5.1h-19.8c-1.8,0-3.4-1.2-4-2.9-.7-2.3-1.7-4.3-3-5.8-1.8-2.1-4.4-3.6-8-4.6-3.6-1-8.7-1.5-15.2-1.5s-10.4.4-13.9,1.1c-3.4.7-5.9,1.8-7.3,3.1-1.5,1.3-2.2,2.9-2.2,4.7s1.2,4.2,3.6,5.5c2.4,1.3,5.5,2.3,9.1,2.9,3.6.6,8.9,1.3,15.6,2.1,10.6,1.1,19.4,2.5,26.3,4.1,6.9,1.6,12.9,4.5,17.9,8.6,5,4.2,7.5,10.1,7.5,17.7s-1.6,10.7-4.9,14.8ZM876.7,362.6v.8c0,2.3-1.9,4.2-4.2,4.2h-28.6c-2.3,0-4.2,1.9-4.2,4.2v64.6c0,2.3-1.9,4.2-4.2,4.2h-19.2c-2.3,0-4.2-1.9-4.2-4.2v-64.6c0-2.3-1.9-4.2-4.2-4.2h-28.6c-2.3,0-4.2-1.9-4.2-4.2v-11c0-2.3,1.9-4.2,4.2-4.2h93.1c2.3,0,4.2,1.9,4.2,4.2v10.2ZM999,421.5c-4.6,7-11.6,12.2-21,15.6-9.4,3.4-21.1,5.1-35.3,5.1s-26.2-1.7-35.5-5.1c-9.3-3.4-16.3-8.6-20.8-15.6-4.6-7-6.9-16-6.9-27.1s.8-12.3,2.4-17.4c1.1-3.5,2.6-6.8,4.5-9.7.3-.5.7-1,1-1.5,4.6-6.3,11.2-11,19.8-14.1,9.3-3.4,21.2-5.1,35.5-5.1s25.9,1.7,35.3,5.1c9.4,3.4,16.4,8.6,21,15.6,4.6,7,6.9,16.1,6.9,27s-2.3,20.1-6.9,27.1ZM1117.8,399c-2.6,4.8-6.9,8.6-12.9,11.1-6,2.6-14,3.9-24,3.9h-31.6c-2.3,0-4.2,1.9-4.2,4.2v18.2c0,2.3-1.9,4.2-4.2,4.2h-19.5c-2.3,0-4.2-1.9-4.2-4.2v-84c0-2.3,1.9-4.2,4.2-4.2h59c13,0,23.1,2.6,30.3,7.8,7.2,5.2,10.8,13.5,10.8,24.8s-1.3,13.4-3.9,18.2Z"/>
    <path class="st1" d="M963.5,366.5c-5.2-2-12.1-3.1-20.7-3.1s-15.7,1-20.8,3.1c-5.3,2.1-9.3,5.4-11.8,10-2.5,4.5-3.8,10.5-3.8,17.9s1.3,13.4,3.8,17.9c2.6,4.5,6.6,7.9,11.8,10,5.2,2,12.2,3.1,20.8,3.1s15.5-1,20.7-3.1c5.3-2.1,9.3-5.5,11.8-10.1,2.5-4.5,3.7-10.5,3.7-17.8s-1.3-13.4-3.7-17.9c-2.5-4.5-6.5-7.9-11.8-10ZM966.1,407.1h0c-1.3,2.4-3.5,4.2-6.5,5.4-3.9,1.6-9.6,2.3-16.9,2.3s-13.1-.8-17-2.3c-3.1-1.2-5.2-3-6.6-5.4-1.6-2.9-2.4-7.2-2.4-12.8s.8-9.9,2.5-12.8c1.4-2.4,3.5-4.2,6.6-5.4,3.9-1.6,9.6-2.3,17-2.3s12.9.8,16.9,2.3c3,1.2,5.2,2.9,6.5,5.4,1.6,2.9,2.4,7.2,2.4,12.8s-.8,9.8-2.4,12.8Z"/>
    <path class="st1" d="M1079.3,367h-31c-1.7,0-3.2,1.4-3.2,3.2v23.1c0,1.7,1.4,3.2,3.2,3.2h30.5c3.8,0,6.8-.6,9.1-1.5,2.3-.9,4-2.5,5.1-4.7,1.1-2.2,1.6-5.1,1.6-8.8s-1.2-8.8-3.6-11c-2.4-2.2-6.3-3.4-11.7-3.4ZM1079.2,387.3c0,0-.2,0-.3,0,0,0-.1,0-.2,0h-24.5v-11.3h25.1c.3,0,.6,0,.9.1,2.6.5,4.6,2.8,4.6,5.6s-2.5,5.7-5.7,5.7Z"/>
  </g>
</svg>